<svg width="343" height="285" viewBox="0 0 343 285" fill="none" xmlns="http://www.w3.org/2000/svg">
<g clip-path="url(#clip0_5_58)">
<g filter="url(#filter0_f_5_58)">
<path fill-rule="evenodd" clip-rule="evenodd" d="M12.59 284.91C14.858 285.3 17.27 285.3 20.222 284.91C23.102 284.51 26.234 283.86 29.762 282.67L30.086 278.86C33.506 278.61 36.602 278.5 39.95 278.53C43.154 278.71 45.962 279.25 49.49 279.18C52.91 279 57.698 278.35 60.938 277.92C64.214 277.67 66.77 277.56 68.894 277.6C69.146 277.06 69.146 275.83 68.894 273.78C68.57 271.73 67.166 267.95 67.31 265.5C67.49 263.2 68.246 261.29 69.866 259.78C69.146 261.94 68.822 263.74 68.894 265.18C68.93 266.69 69.686 266.65 70.19 268.67C70.658 270.79 70.946 273.67 71.45 277.6C74.546 277.67 78.002 277.89 81.962 278.25C85.85 278.75 89.27 279.97 94.994 279.83C100.61 279.65 110.33 277.78 115.98 277.27C121.67 276.91 125.74 277.02 128.73 277.6C132.15 278.57 136.25 279 141.43 279.18C146.65 279.43 153.89 278.89 159.25 278.53C164.33 278.14 166.45 277.81 172.29 277.27C178.08 276.91 188.09 276.41 194.25 276.34C200.37 276.44 204.15 277.74 208.9 277.6C213.61 277.53 217.93 276.84 222.25 275.69C222.54 274.79 222.86 273.85 223.51 272.49C224.09 271.37 225.35 270.36 225.74 268.06C226.03 265.75 225.13 260.21 225.42 258.52C225.67 256.93 226.07 256.83 227.01 258.19C226.43 261.07 226.54 263.52 227.33 265.83C228.09 268.13 230.39 270.15 231.47 271.87C232.37 273.75 231.15 275.19 233.05 276.34C234.93 277.49 236.91 277.99 242.59 278.25C248.14 278.53 259.98 277.85 266.46 277.6C272.8 277.45 274.99 277.42 280.68 276.95C286.26 276.55 293.89 275.22 300.12 275.04C306.24 274.97 312.07 275.4 317.62 276.34L317.29 282.06C320.28 284.58 323.52 285.7 327.16 285.55C330.72 285.37 334.64 283.93 338.93 281.09L343.36 6.56001V6.55561C343.14 6.37361 342.02 6.04961 339.86 5.58261C337.63 5.11361 334.5 4.71761 330.32 3.99861L328.42 1.44161C325.25 1.36961 322.84 1.58661 320.78 2.08961C318.73 2.70061 317.29 3.42161 316.32 4.64661L316.64 12.891C300.59 12.602 288.31 12.278 279.42 11.629C270.49 11.055 269.27 9.4706 263.51 9.3986C257.57 9.5056 249.97 11.27 244.75 11.629C239.57 12.025 236.98 11.559 232.66 11.629C228.19 11.846 223.51 12.063 218.33 12.567C218.26 14.979 218.18 16.995 217.72 18.614C217.21 20.343 216.71 21.53 215.81 22.466C216.42 20.378 216.53 18.362 216.13 16.419C215.63 14.511 214.8 12.747 213.25 10.983C207.28 10.262 201.55 9.93761 196.08 9.72261C190.43 9.57761 185.35 9.68561 180.17 10.045C180.78 11.881 181 13.574 180.82 15.121C180.49 16.742 179.3 17.533 178.91 19.586C178.51 21.781 178.4 24.41 178.58 27.865C178.55 27.146 178.44 26.281 178.26 24.986C177.97 23.726 177.47 22.142 177.29 20.521C177.07 19.082 177.58 17.318 177 15.769C176.35 14.185 176.1 12.601 173.47 11.306C170.66 10.081 165.41 9.46961 160.76 9.07361C155.94 8.82161 148.63 9.00161 145.5 10.045C142.37 11.27 143.99 16.059 142.3 16.094C140.53 16.166 138.37 11.342 134.99 10.369C131.39 9.47061 126.13 10.73 121.31 10.693C116.48 10.765 111.55 10.765 106.37 10.693C105.4 12.025 104.64 13.502 103.81 15.121C102.98 16.85 102.52 20.594 101.58 20.521C100.39 20.486 98.053 16.128 97.765 14.796C97.585 13.646 100.75 13.933 100.32 12.89C99.745 11.88 98.953 9.10861 94.597 8.45961C90.097 7.92061 83.329 8.38961 73.897 9.72161C73.033 14.185 71.917 16.417 70.405 16.417C68.785 16.38 67.201 11.054 64.681 9.72161C62.125 8.49661 62.557 9.43261 55.141 9.07361C47.474 8.78361 35.846 8.56961 19.573 8.13761C18.925 6.19261 17.305 5.07661 14.173 4.64561C11.113 4.28461 6.72059 4.75261 1.14099 5.90561H1.14059L4.30959 277.596C5.92959 278.636 7.54959 279.246 8.77359 279.826C9.96159 280.436 11.15 280.616 11.942 280.756C12.157 282.126 12.374 283.496 12.59 284.906V284.91ZM5.56959 276.95C8.80959 276.34 11.87 276.08 15.146 276.34C18.314 276.66 22.418 277.67 24.686 278.53C26.918 279.5 28.142 280.48 28.502 281.74C28.286 273.6 27.854 258.8 26.918 236.23C25.838 213.59 24.65 185.9 23.066 147.49C21.554 109.15 19.862 63.397 17.99 8.14001V8.13761C15.902 6.98561 13.706 6.30161 11.006 6.22961C8.26959 6.19261 5.42559 6.76861 2.07759 7.81361C3.22959 97.5246 4.38159 187.244 5.56959 276.954V276.95ZM19.5726 9.4C34.2606 10.0844 44.9526 10.5154 52.1886 10.6954C59.2446 10.8754 59.4966 9.58001 62.3766 10.6954C65.2206 11.9204 67.4526 16.9964 69.3606 18.0044C71.1606 19.2294 72.3126 18.6884 73.5006 17.3564C74.6526 16.1314 75.4086 13.7564 76.0566 10.3724C80.5566 9.97701 84.4806 9.76101 87.8286 9.72601C91.2846 9.68901 94.4166 9.90601 96.1086 10.3724C97.4766 11.0584 97.1886 12.4604 97.0446 13.2164C96.8286 14.0444 95.2806 14.0814 95.4606 15.1244C95.6406 16.4214 97.1886 18.6164 98.3046 19.9134C99.3846 21.2084 100.93 22.9364 102.12 22.4684C103.13 22.0734 103.85 19.1204 104.68 17.3574C105.5 15.6284 106.15 13.8304 106.91 11.9574C112.96 12.2094 118.1 12.3184 122.5 12.2814C126.85 12.2464 130.31 11.4904 133.01 11.9574C135.53 12.6054 136.86 14.6214 138.41 15.7734C139.92 16.9984 141.43 18.8344 142.55 18.9414C143.59 19.0864 144.38 17.6464 145.07 16.4214C145.64 15.2694 143.95 13.0364 146.36 11.9564C148.74 10.9484 155.26 10.6614 159.4 10.6964C163.5 10.9134 168.18 11.9214 170.92 12.8934C173.58 13.9014 174.37 14.4774 175.38 16.7074C176.21 19.0844 175.56 24.3754 176.35 26.8964C177.11 29.4884 178.23 31.1444 179.85 32.0074C179.27 28.6594 179.16 25.9234 179.52 23.4034C179.81 21.0264 181.11 19.3354 181.75 17.3544C182.36 15.4114 182.69 13.5024 183.01 11.6294C183.59 11.5944 186.29 11.5944 190.97 11.6294C195.69 11.7014 202.27 11.8114 211.02 11.9534C212.43 13.6094 213.43 15.5174 214.19 17.6784C214.87 19.9104 215.2 22.2504 215.16 24.9874C216.42 23.7984 217.57 22.3584 218.33 20.5224C219.16 18.6864 219.59 16.7064 219.91 14.1864C231.9 14.2584 241.51 14.0414 249.18 13.5384C256.78 13.0714 259.73 11.3084 265.42 11.3084C270.89 11.5234 274.02 13.2514 282.59 13.8634C291.23 14.4394 302.35 14.6564 316.65 14.5114L317.91 274.431C313.19 273.381 307.72 272.951 301.06 273.131C294.22 273.531 284.32 275.081 278.16 275.691C272.08 276.261 271.07 276.301 264.88 276.341C258.51 276.591 245.76 276.731 240.69 276.341C235.58 275.871 235.83 274.821 234.64 273.781C233.38 272.951 234.21 272.741 233.38 270.901C232.37 269.061 230.07 265.721 229.24 262.941C228.41 260.321 229.31 256.641 228.59 254.991C227.73 253.511 225.1 252.721 224.45 253.731C223.66 254.841 224.63 258.731 224.45 261.361C224.23 264.101 223.91 267.551 223.19 269.641C222.33 271.801 221.21 273.241 219.7 274.101C214.95 275.151 210.81 275.541 207.28 275.691C203.64 275.761 203.82 274.971 198.39 274.721C192.88 274.571 182.62 274.681 174.84 275.041C166.92 275.581 157.38 277.311 151.62 277.601C145.9 277.991 144.96 277.451 140.46 276.951C135.75 276.371 129.41 275.111 123.94 274.721C118.25 274.541 112.78 275.191 107.38 275.691C101.94 276.411 95.9296 278.101 92.1136 278.251C88.2976 278.321 87.9376 276.991 84.8056 276.341C81.6736 275.831 77.8576 275.401 73.3576 275.041C71.6296 271.551 70.7656 268.491 70.4776 265.181C70.1896 261.971 70.6216 258.951 71.7736 255.961C68.8216 259.171 66.8056 261.611 65.7256 263.591C64.5016 265.541 64.7896 265.901 65.0776 267.731C65.3656 269.751 66.0136 272.201 67.3096 275.371C66.3736 275.981 63.7816 276.271 59.6776 276.631C55.3936 276.991 47.4016 277.351 42.5056 277.271C37.5736 277.311 33.8296 277.091 30.7336 276.631L19.5726 9.4014V9.39901V9.4ZM13.8496 283.32L12.5896 279.18L8.12519 277.92C11.5096 277.78 14.6416 277.85 17.6656 278.53C20.6896 279.25 23.3176 280.19 25.9456 281.74C23.2096 282.82 21.0136 283.36 18.9616 283.64C16.9096 283.93 15.2536 283.82 13.8496 283.32V283.32ZM341.85 7.16001C340.05 8.09601 337.92 8.63701 335.19 8.77901C332.31 8.95901 328.56 8.74401 325.61 8.13301C322.66 7.55701 320.25 6.83601 317.98 5.57601C319.17 4.53101 320.68 3.99201 322.12 3.66801C323.52 3.41601 325.25 3.52301 326.91 3.99201L330.07 6.22401C334 6.51201 337.92 6.83601 341.85 7.16001V7.16001ZM317.98 8.13301C318.37 34.268 318.7 69.297 318.95 115.013C319.13 160.983 319.24 215.163 319.27 280.753C320.07 282.813 321.83 283.823 325 283.643C328.02 283.453 332.31 282.233 337.71 279.823L341.85 9.71301V9.71561C337.67 10.687 333.96 11.263 330.72 11.3C327.23 11.335 324.31 10.687 322.12 10.038C319.96 9.46261 318.63 8.95661 317.98 8.13061V8.13301Z" fill="#1A1A1A"/>
</g>
<path fill-rule="evenodd" clip-rule="evenodd" d="M11.5105 283.568C13.7785 283.928 16.1905 283.928 19.1425 283.568C22.0225 283.138 25.1545 282.458 28.6825 281.378L29.0065 277.558C32.4265 277.278 35.5225 277.168 38.8705 277.238C42.0745 277.278 44.8825 277.848 48.4105 277.848C51.8305 277.628 56.6185 276.838 59.8585 276.588C63.1345 276.298 65.6905 276.188 67.8145 276.268C68.0665 275.688 68.0665 274.468 67.8145 272.448C67.4905 270.328 66.0865 266.548 66.2305 264.168C66.4105 261.798 67.1665 259.888 68.7865 258.448C68.0665 260.498 67.7425 262.438 67.8145 263.878C67.8505 265.288 68.6065 265.288 69.1105 267.378C69.5785 269.458 69.8665 272.378 70.3705 276.268C73.4665 276.298 76.9225 276.518 80.8825 276.918C84.7705 277.308 88.1905 278.538 93.9145 278.498C99.5305 278.208 109.254 276.338 114.904 275.938C120.594 275.548 124.654 275.658 127.644 276.268C131.064 277.098 135.174 277.668 140.354 277.848C145.574 277.958 152.814 277.528 158.174 277.238C163.254 276.768 165.374 276.338 171.204 275.938C177.004 275.508 187.014 274.968 193.164 275.008C199.284 275.038 203.064 276.298 207.814 276.268C212.534 276.158 216.854 275.478 221.174 274.358C221.464 273.568 221.784 272.378 222.434 271.188C223.004 269.898 224.274 268.958 224.664 266.728C224.954 264.348 224.054 258.768 224.344 257.188C224.594 255.528 224.984 255.418 225.924 256.858C225.354 259.708 225.454 262.158 226.244 264.498C227.004 266.758 229.314 268.778 230.384 270.538C231.284 272.338 230.064 273.778 231.974 275.008C233.844 276.118 235.824 276.628 241.514 276.918C247.054 277.098 258.904 276.408 265.384 276.268C271.684 275.978 273.984 276.048 279.634 275.658C285.284 275.188 292.774 273.748 299.044 273.708C305.164 273.568 310.994 273.998 316.534 275.008L316.214 280.728C319.204 283.218 322.444 284.328 326.074 284.218C329.644 284.008 333.564 282.568 337.844 279.758L342.314 5.21847V5.22247C342.134 5.04247 340.904 4.71847 338.784 4.25047C336.554 3.78247 333.424 3.38647 329.244 2.66647L327.334 0.110472C324.164 0.0384716 321.754 0.254472 319.704 0.757472C317.654 1.36947 316.214 2.08947 315.244 3.31447L315.564 11.5935C299.504 11.3415 287.234 10.9095 278.344 10.2975C269.414 9.72147 268.184 8.13747 262.424 8.06647C256.484 8.17347 248.894 9.93847 243.674 10.2975C238.484 10.6935 235.894 10.2265 231.574 10.2975C227.114 10.4785 222.394 10.8015 217.284 11.2705C217.244 13.6815 217.034 15.6985 216.634 17.3185C216.134 18.9735 215.624 20.1985 214.724 21.1335C215.344 19.0455 215.444 17.0295 215.054 15.0855C214.544 13.2135 213.724 11.4135 212.174 9.68647C206.194 9.00147 200.474 8.57047 195.004 8.38947C189.344 8.24547 184.274 8.35447 179.084 8.71347C179.704 10.5495 179.914 12.2415 179.734 13.7895C179.414 15.4095 178.224 16.2015 177.824 18.2535C177.434 20.4495 177.324 23.0775 177.504 26.5335C177.464 25.8135 177.364 24.9495 177.184 23.6535C176.854 22.4655 176.494 20.8445 176.244 19.2255C176.064 17.7485 176.424 16.0565 175.924 14.4375C175.234 12.9245 175.094 11.1615 172.424 9.97247C169.624 8.89347 164.404 8.02947 159.684 7.77747C154.864 7.52547 147.554 7.70547 144.424 8.71347C141.364 9.93847 142.944 14.7265 141.254 14.7615C139.484 14.8335 137.364 10.0095 133.904 9.03747C130.304 8.13747 125.054 9.39747 120.224 9.36147C115.404 9.43247 110.474 9.43247 105.284 9.36147C104.314 10.6935 103.564 12.1695 102.734 13.7895C101.904 15.4455 101.434 19.3335 100.504 19.2265C99.3125 19.1905 96.9725 14.8335 96.6845 13.5015C96.5045 12.2775 99.6725 12.7455 99.2405 11.5935C98.6645 10.5135 97.8725 7.77847 93.5165 7.12947C88.9825 6.58847 82.3225 7.05647 72.8545 8.38847C71.9905 12.8535 70.9105 15.0845 69.3265 15.0845C67.7065 15.0485 66.1225 9.72047 63.6025 8.38847C61.0465 7.23747 61.4785 8.10047 54.0625 7.77747C46.3945 7.52447 34.7665 7.20047 18.4945 6.80447C17.8465 4.86147 16.2265 3.74447 13.0945 3.31347C10.0345 2.95347 5.64248 3.42047 0.0624847 4.57347L3.23048 276.273V276.263C4.85048 277.273 6.47048 277.883 7.69448 278.493C8.88248 278.993 10.0705 279.323 10.8625 279.463C11.0785 280.833 11.2945 282.203 11.5105 283.563V283.568Z" fill="black" stroke="black" stroke-width="0.036" stroke-miterlimit="10"/>
<path fill-rule="evenodd" clip-rule="evenodd" d="M3.4975 275.85C3.3895 240.64 3.1735 201.36 2.7055 155.93C2.2375 110.46 1.5895 61.103 0.7615 5.34L0.76149 5.3405C4.10949 3.9735 7.16949 3.3245 10.085 3.3975C12.965 3.5775 15.449 4.4775 17.825 6.0965L28.697 280.487C26.897 279.617 24.881 278.716 22.109 277.786C19.301 276.996 15.521 275.337 12.425 275.047C9.32949 274.687 6.30549 275.046 3.49749 275.846L3.4975 275.85Z" fill="url(#paint0_linear_5_58)"/>
<path fill-rule="evenodd" clip-rule="evenodd" d="M12.101 282.58L10.913 278.69L5.83749 276.6C9.61749 275.45 13.109 275.3 16.6015 276.02C20.0205 276.89 23.2965 278.4 26.4285 281.1C23.6565 282.47 21.0285 283.26 18.6885 283.48C16.2045 283.8 14.1525 283.37 12.1005 282.58H12.101Z" fill="white"/>
<path fill-rule="evenodd" clip-rule="evenodd" d="M28.841 276.02L17.465 6.71V6.7095C24.125 7.0315 29.813 7.4285 35.105 7.6075C40.325 7.9315 44.249 8.0415 48.533 8.2205C52.709 8.5075 57.281 7.8245 60.161 8.5075C62.861 9.3005 63.725 10.812 65.237 12.071C66.641 13.331 67.613 15.778 68.837 15.96C69.989 16.282 71.358 14.843 72.401 13.583C73.337 12.358 73.985 10.667 74.489 8.5075C78.665 8.0755 82.121 7.8235 85.253 7.6075C88.241 7.4275 90.725 7.4275 92.705 7.6075C94.505 7.8965 95.981 8.5455 96.593 9.4085C97.133 10.523 96.341 12.144 96.305 13.297C96.233 14.34 95.585 15.276 96.305 16.248C96.917 17.508 99.185 19.775 100.19 20.137C101.06 20.496 101.09 19.02 101.67 18.049C102.1 17.041 102.43 16.031 103.18 14.485C103.83 13.081 104.77 11.532 105.85 9.6965C108.98 9.5165 112.69 9.5165 116.97 9.4095C121.29 9.3375 127.91 8.8335 131.3 9.4095C134.54 10.165 134.61 12.577 136.37 13.585C138.03 14.737 140.23 15.853 141.45 15.673C142.64 15.421 142.46 13.55 143.25 12.398C143.83 11.462 143.5 10.418 145.34 9.6975C147.1 9.0135 149.98 8.2955 153.98 8.2225C157.87 8.3295 165.25 9.1935 168.63 9.9865C171.87 10.849 172.41 11.353 173.71 13.299C174.82 15.387 175.15 19.563 175.79 21.938C176.41 24.387 177.23 26.186 177.88 27.627C177.7 24.781 177.85 22.334 178.17 20.139C178.49 18.086 179.29 16.575 179.97 14.774C180.62 12.938 181.09 11.282 181.77 9.4115C187.6 9.0525 192.93 8.9425 197.9 9.0875C202.83 9.3045 207.26 9.6635 211.33 10.312C212.48 12.363 213.41 14.343 213.99 16.251C214.6 18.267 214.85 20.067 214.89 21.939C216.51 20.32 217.66 18.628 218.2 16.863C218.71 15.099 218.71 13.408 218.2 11.5C224.5 11.896 230.62 12.039 236.71 11.787C242.83 11.572 249.67 10.889 254.31 10.312C258.74 9.8435 259.93 8.8355 263.27 8.8005C266.48 8.9435 270.33 10.06 273.71 10.599C276.92 11.14 277.78 11.535 283.25 11.787C288.91 12.076 300.75 12.473 306.55 12.4C312.09 12.435 315.33 12.183 316.41 11.787L317.31 273.937C314.54 272.967 310.9 272.457 306.26 272.427C301.47 272.457 295.71 273.467 289.52 273.937C283.22 274.547 275.95 275.417 269.25 275.697C262.48 275.987 254.88 276.097 249.52 276.027C244.12 276.207 239.8 276.527 236.99 276.027C234.08 275.597 233.36 274.257 232.2 272.717C230.94 271.127 230.66 269.007 229.83 266.737C228.89 264.647 227.67 262.097 227.13 259.897C226.55 257.807 226.62 254.747 226.23 253.917C225.62 253.307 224.5 253.847 224.14 255.397C223.85 257.057 224.32 260.937 224.14 263.177C223.85 265.477 223.2 267.097 222.34 268.857C221.4 270.737 221.19 272.927 218.78 273.937C216.33 275.057 212.55 275.127 207.44 275.127C202.15 275.127 195.7 273.757 187.42 273.937C178.89 274.297 166.72 276.207 157.72 276.597C148.76 277.067 141.77 276.277 134.14 276.027C126.33 275.807 118.73 274.477 112.04 274.797C105.38 275.267 99.04 277.897 94.432 278.117C89.752 278.257 87.844 276.637 83.992 276.027C79.996 275.627 75.892 275.377 71.14 275.417C70.42 271.777 69.772 268.937 69.34 266.737C68.8 264.617 68.404 263.817 68.44 262.277C68.512 260.727 68.872 259.037 69.664 257.197C67.072 258.597 65.524 260.147 64.876 261.987C64.192 263.897 65.416 265.977 65.776 268.247C66.1 270.557 66.496 273.037 66.964 275.697C62.356 276.347 57.856 276.747 52.924 276.887C47.92 277.137 41.728 277.137 37.696 276.887C33.628 276.777 30.677 276.487 28.841 276.017V276.02Z" fill="url(#paint1_linear_5_58)"/>
<path fill-rule="evenodd" clip-rule="evenodd" d="M317.38 279.59C317.27 203.66 317.27 144.27 317.09 97.79C316.88 51.637 316.77 21.035 316.48 4.332V4.3325C319.15 6.2405 321.74 7.5355 324.55 8.2215C327.25 8.9775 329.98 8.7975 332.9 8.5085C335.74 8.2935 338.73 7.6455 341.86 6.7095L337.36 278.69C334.09 280.56 331.35 281.859 329.01 282.579C326.67 283.509 325.16 283.58 323.36 283.19C321.45 282.76 319.36 281.46 317.38 279.59V279.59Z" fill="url(#paint2_linear_5_58)"/>
<path fill-rule="evenodd" clip-rule="evenodd" d="M315.87 4.6195C318.61 6.4205 321.74 7.5725 325.12 8.2215C328.51 8.8675 333.29 9.0125 336.17 8.5085C338.91 8.1125 340.85 7.2135 341.86 5.8095C340.42 5.2685 338.59 4.7295 336.5 4.3325C334.3 3.9365 331.85 3.6845 329.01 3.4325L325.45 1.0575C323.25 0.625474 321.31 0.768474 319.76 1.3445C318.07 1.9575 316.91 3.0005 315.87 4.6195V4.6195Z" fill="white"/>
<path fill-rule="evenodd" clip-rule="evenodd" d="M11.561 283.48C13.829 283.87 16.241 283.87 19.193 283.48C22.073 283.08 25.205 282.43 28.733 281.25L29.057 277.43C32.477 277.18 35.573 277.07 38.921 277.11C42.125 277.29 44.933 277.83 48.461 277.75C51.881 277.57 56.669 276.93 59.909 276.49C63.185 276.24 65.741 276.13 67.865 276.17C68.117 275.63 68.117 274.41 67.865 272.35C67.541 270.3 66.137 266.52 66.281 264.07C66.461 261.77 67.217 259.86 68.837 258.35C68.117 260.51 67.793 262.31 67.865 263.75C67.901 265.26 68.657 265.23 69.161 267.24C69.629 269.37 69.917 272.25 70.421 276.17C73.517 276.24 76.973 276.46 80.933 276.82C84.821 277.32 88.241 278.55 93.965 278.4C99.581 278.22 109.3 276.35 114.95 275.85C120.64 275.49 124.71 275.59 127.7 276.17C131.12 277.14 135.22 277.57 140.41 277.75C145.63 278 152.86 277.47 158.23 277.11C163.3 276.71 165.43 276.39 171.26 275.85C177.05 275.49 187.06 274.98 193.22 274.91C199.34 275.02 203.12 276.31 207.87 276.17C212.59 276.1 216.91 275.41 221.23 274.26C221.51 273.36 221.84 272.43 222.49 271.06C223.06 269.94 224.32 268.93 224.72 266.63C225 264.32 224.11 258.78 224.39 257.09C224.65 255.5 225.04 255.4 225.98 256.77C225.4 259.65 225.51 262.09 226.3 264.4C227.06 266.7 229.36 268.72 230.44 270.45C231.34 272.32 230.12 273.76 232.03 274.91C233.9 276.06 235.88 276.57 241.57 276.82C247.11 277.11 258.95 276.42 265.43 276.17C271.77 276.03 273.96 275.99 279.65 275.52C285.23 275.13 292.87 273.79 299.09 273.61C305.21 273.54 311.04 273.97 316.59 274.91L316.27 280.64C319.25 283.16 322.49 284.27 326.13 284.13C329.69 283.95 333.62 282.51 337.9 279.66L342.33 5.13V5.1275C342.11 4.9455 341 4.6215 338.84 4.1545C336.61 3.6855 333.47 3.2895 329.3 2.5705L327.39 0.0135004V0.0134744C324.22 -0.0585256 321.81 0.158474 319.76 0.661474C317.7 1.2725 316.27 1.99347 315.29 3.21847L315.62 11.462C299.56 11.173 287.28 10.849 278.39 10.2C269.46 9.62647 268.24 8.04247 262.48 7.97047C256.54 8.07747 248.94 9.84147 243.72 10.2C238.54 10.596 235.95 10.13 231.63 10.2C227.16 10.417 222.48 10.634 217.3 11.138C217.23 13.55 217.16 15.566 216.69 17.185C216.18 18.914 215.68 20.101 214.78 21.037C215.39 18.949 215.5 16.933 215.1 14.99C214.6 13.082 213.77 11.318 212.22 9.55447C206.25 8.83347 200.52 8.50947 195.05 8.29447C189.4 8.14947 184.32 8.25747 179.14 8.61647C179.75 10.452 179.97 12.145 179.79 13.692C179.46 15.313 178.28 16.104 177.88 18.157C177.48 20.352 177.38 22.981 177.56 26.436C177.52 25.717 177.41 24.852 177.23 23.557C176.94 22.297 176.44 20.713 176.26 19.092C176.04 17.653 176.55 15.889 175.97 14.34C175.32 12.756 175.07 11.172 172.44 9.87747C169.64 8.65247 164.38 8.04147 159.74 7.64547C154.91 7.39347 147.6 7.57347 144.47 8.61647C141.34 9.84147 142.96 14.63 141.27 14.665C139.5 14.737 137.34 9.91347 133.96 8.94047C130.36 8.04247 125.1 9.30147 120.28 9.26447C115.46 9.33647 110.52 9.33647 105.34 9.26447C104.37 10.596 103.61 12.073 102.78 13.692C101.96 15.421 101.49 19.165 100.55 19.092C99.364 19.057 97.024 14.699 96.736 13.367C96.556 12.217 99.724 12.504 99.292 11.461C98.716 10.451 97.924 7.68047 93.568 7.03147C89.068 6.49247 82.3 6.96147 72.868 8.29347C72.004 12.756 70.888 14.988 69.376 14.988C67.756 14.951 66.172 9.62547 63.652 8.29347C61.096 7.06847 61.528 8.00447 54.112 7.64547C46.445 7.35547 34.817 7.14147 18.544 6.70947C17.896 4.76447 16.276 3.64847 13.144 3.21747C10.084 2.85647 5.6925 3.32447 0.112 4.47747H0.11249L3.28149 276.167C4.90149 277.207 6.52149 277.817 7.74549 278.397C8.93349 279.007 10.121 279.187 10.913 279.337C11.128 280.697 11.345 282.067 11.561 283.477L11.561 283.48ZM4.5415 275.52C7.7815 274.91 10.841 274.66 14.117 274.91C17.285 275.23 21.389 276.24 23.657 277.1C25.889 278.08 27.113 279.05 27.473 280.31C27.257 272.17 26.825 257.38 25.889 234.8C24.809 212.16 23.621 184.48 22.037 146.06C20.525 107.72 18.833 61.968 16.961 6.71V6.7095C14.873 5.5575 12.677 4.8735 9.9775 4.8015C7.2415 4.7645 4.3975 5.3405 1.0495 6.3855C2.2015 96.0955 3.3535 185.806 4.5415 275.516V275.52ZM18.5435 7.97C33.2315 8.654 43.9235 9.085 51.1595 9.265C58.2155 9.445 58.4675 8.15 61.3475 9.265C64.1915 10.4895 66.4235 15.5655 68.3315 16.5735C70.1315 17.7985 71.2835 17.2575 72.4715 15.9255C73.6235 14.7005 74.3795 12.3255 75.0275 8.942C79.5275 8.547 83.4515 8.331 86.7995 8.296C90.2555 8.259 93.3875 8.476 95.0795 8.942C96.4475 9.628 96.1595 11.0295 96.0155 11.7855C95.7995 12.6135 94.2515 12.6505 94.4315 13.6935C94.6115 14.9905 96.1595 17.1855 97.2755 18.4825C98.3555 19.7775 99.9035 21.5055 101.09 21.0375C102.1 20.6425 102.819 17.6895 103.649 15.9265C104.479 14.1975 105.12 12.3995 105.88 10.5265C111.93 10.7785 117.079 10.8875 121.469 10.8505C125.819 10.8155 129.28 10.0595 131.98 10.5265C134.5 11.1745 135.83 13.1905 137.38 14.3425C138.89 15.5675 140.4 17.4035 141.52 17.5105C142.56 17.6555 143.36 16.2155 144.04 14.9905C144.62 13.8385 142.919 11.6055 145.339 10.5255C147.709 9.518 154.23 9.231 158.37 9.266C162.47 9.483 167.149 10.4905 169.889 11.4625C172.549 12.4705 173.35 13.0465 174.35 15.2765C175.18 17.6535 174.529 22.9445 175.329 25.4655C176.079 28.0575 177.2 29.7135 178.82 30.5765C178.24 27.2285 178.13 24.4925 178.49 21.9725C178.78 19.5955 180.08 17.9045 180.73 15.9235C181.34 13.9805 181.66 12.0715 181.99 10.1985C182.56 10.1635 185.259 10.1635 189.939 10.1985C194.659 10.2705 201.25 10.3805 209.99 10.5225C211.4 12.1785 212.41 14.0865 213.16 16.2475C213.85 18.4795 214.17 20.8195 214.13 23.5565C215.39 22.3675 216.549 20.9275 217.299 19.0915C218.129 17.2555 218.559 15.2755 218.889 12.7555C230.869 12.8275 240.49 12.6105 248.15 12.1075C255.75 11.6405 258.699 9.878 264.389 9.878C269.859 10.0925 272.99 11.8205 281.56 12.4325C290.2 13.0085 301.33 13.2255 315.62 13.0805L316.879 273.001C312.159 271.961 306.69 271.521 300.03 271.701C293.19 272.101 283.289 273.651 277.129 274.261C271.049 274.841 270.039 274.871 263.849 274.911C257.479 275.161 244.74 275.301 239.66 274.911C234.549 274.441 234.799 273.401 233.609 272.351C232.349 271.521 233.18 271.311 232.35 269.471C231.34 267.641 229.04 264.291 228.21 261.521C227.38 258.891 228.279 255.221 227.559 253.561C226.699 252.081 224.069 251.291 223.419 252.301C222.629 253.421 223.599 257.301 223.419 259.931C223.209 262.671 222.88 266.121 222.16 268.211C221.3 270.371 220.179 271.811 218.669 272.681C213.919 273.721 209.779 274.121 206.249 274.261C202.609 274.331 202.789 273.541 197.359 273.291C191.849 273.141 181.589 273.251 173.809 273.611C165.889 274.151 156.349 275.881 150.589 276.171C144.869 276.561 143.93 276.021 139.43 275.521C134.72 274.941 128.379 273.681 122.91 273.291C117.22 273.111 111.75 273.761 106.35 274.261C100.91 274.981 94.9005 276.671 91.0845 276.821C87.2685 276.891 86.9085 275.561 83.7765 274.911C80.6445 274.411 76.8285 273.971 72.3285 273.611C70.6005 270.121 69.7365 267.061 69.4485 263.751C69.1605 260.551 69.5925 257.521 70.7445 254.531C67.7925 257.741 65.7765 260.191 64.6965 262.171C63.4725 264.111 63.7605 264.471 64.0485 266.311C64.3365 268.321 64.9845 270.771 66.2805 273.941C65.3445 274.551 62.7525 274.841 58.6485 275.201C54.3645 275.561 46.3725 275.921 41.4765 275.851C36.5445 275.881 32.8005 275.671 29.7045 275.201L18.5435 7.9705V7.97V7.97ZM12.8205 281.89L11.5605 277.75L7.097 276.49C10.4805 276.35 13.6125 276.42 16.6365 277.1C19.6605 277.82 22.2885 278.76 24.9165 280.31C22.1805 281.39 19.9845 281.93 17.9325 282.22C15.8805 282.5 14.2245 282.4 12.8205 281.89V281.89ZM340.82 5.74C339.02 6.676 336.89 7.217 334.16 7.359C331.28 7.539 327.531 7.324 324.581 6.713C321.631 6.137 319.221 5.416 316.951 4.156C318.141 3.111 319.651 2.572 321.091 2.248C322.491 1.996 324.22 2.103 325.88 2.572L329.051 4.804C332.971 5.092 336.89 5.416 340.82 5.74ZM316.951 6.713C317.351 32.847 317.671 67.877 317.921 113.593C318.101 159.573 318.21 213.743 318.25 279.343C319.04 281.393 320.8 282.403 323.97 282.223C326.99 282.043 331.281 280.813 336.681 278.403L340.82 8.293V8.2975C336.64 9.2685 332.93 9.8445 329.69 9.8815C326.2 9.9165 323.291 9.2685 321.091 8.6195C318.931 8.0445 317.601 7.5385 316.951 6.7125V6.713Z" fill="black"/>
</g>
<defs>
<filter id="filter0_f_5_58" x="-1.99118" y="-1.70363" width="348.483" height="290.399" filterUnits="userSpaceOnUse" color-interpolation-filters="sRGB">
<feFlood flood-opacity="0" result="BackgroundImageFix"/>
<feBlend mode="normal" in="SourceGraphic" in2="BackgroundImageFix" result="shape"/>
<feGaussianBlur stdDeviation="1.56589" result="effect1_foregroundBlur_5_58"/>
</filter>
<linearGradient id="paint0_linear_5_58" x1="25.0655" y1="141.778" x2="0.00379118" y2="142.438" gradientUnits="userSpaceOnUse">
<stop offset="0.1286" stop-color="#D3D3D3"/>
<stop offset="0.2905" stop-color="#D3D3D3"/>
<stop offset="0.5952" stop-color="white"/>
<stop offset="1" stop-color="white"/>
</linearGradient>
<linearGradient id="paint1_linear_5_58" x1="22.3105" y1="145.438" x2="320.714" y2="135.018" gradientUnits="userSpaceOnUse">
<stop stop-color="#D3D3D3"/>
<stop offset="0.0333" stop-color="white"/>
<stop offset="0.9143" stop-color="white"/>
<stop offset="1" stop-color="#D3D3D3"/>
</linearGradient>
<linearGradient id="paint2_linear_5_58" x1="343.054" y1="143.678" x2="316.195" y2="143.918" gradientUnits="userSpaceOnUse">
<stop offset="0.0048" stop-color="white"/>
<stop offset="0.1429" stop-color="white"/>
<stop offset="0.2952" stop-color="white"/>
<stop offset="0.6381" stop-color="white"/>
<stop offset="0.9333" stop-color="#D3D3D3"/>
<stop offset="1" stop-color="#D3D3D3"/>
</linearGradient>
<clipPath id="clip0_5_58">
<rect width="342.289" height="284.248" fill="white"/>
</clipPath>
</defs>
</svg>
